%TF.GenerationSoftware,KiCad,Pcbnew,9.0.2+dfsg-1*%
%TF.CreationDate,2026-05-06T07:51:09+00:00*%
%TF.ProjectId,blink_555,626c696e-6b5f-4353-9535-2e6b69636164,rev?*%
%TF.SameCoordinates,Original*%
%TF.FileFunction,Copper,L1,Top*%
%TF.FilePolarity,Positive*%
%FSLAX46Y46*%
G04 Gerber Fmt 4.6, Leading zero omitted, Abs format (unit mm)*
G04 Created by KiCad (PCBNEW 9.0.2+dfsg-1) date 2026-05-06 07:51:09*
%MOMM*%
%LPD*%
G01*
G04 APERTURE LIST*
G04 Aperture macros list*
%AMRoundRect*
0 Rectangle with rounded corners*
0 $1 Rounding radius*
0 $2 $3 $4 $5 $6 $7 $8 $9 X,Y pos of 4 corners*
0 Add a 4 corners polygon primitive as box body*
4,1,4,$2,$3,$4,$5,$6,$7,$8,$9,$2,$3,0*
0 Add four circle primitives for the rounded corners*
1,1,$1+$1,$2,$3*
1,1,$1+$1,$4,$5*
1,1,$1+$1,$6,$7*
1,1,$1+$1,$8,$9*
0 Add four rect primitives between the rounded corners*
20,1,$1+$1,$2,$3,$4,$5,0*
20,1,$1+$1,$4,$5,$6,$7,0*
20,1,$1+$1,$6,$7,$8,$9,0*
20,1,$1+$1,$8,$9,$2,$3,0*%
G04 Aperture macros list end*
%TA.AperFunction,ComponentPad*%
%ADD10RoundRect,0.250000X-0.550000X-0.550000X0.550000X-0.550000X0.550000X0.550000X-0.550000X0.550000X0*%
%TD*%
%TA.AperFunction,ComponentPad*%
%ADD11C,1.600000*%
%TD*%
%TA.AperFunction,SMDPad,CuDef*%
%ADD12RoundRect,0.225000X-0.225000X-0.250000X0.225000X-0.250000X0.225000X0.250000X-0.225000X0.250000X0*%
%TD*%
%TA.AperFunction,SMDPad,CuDef*%
%ADD13RoundRect,0.200000X-0.200000X-0.275000X0.200000X-0.275000X0.200000X0.275000X-0.200000X0.275000X0*%
%TD*%
%TA.AperFunction,ComponentPad*%
%ADD14R,1.700000X1.700000*%
%TD*%
%TA.AperFunction,ComponentPad*%
%ADD15C,1.700000*%
%TD*%
%TA.AperFunction,SMDPad,CuDef*%
%ADD16RoundRect,0.243750X-0.243750X-0.456250X0.243750X-0.456250X0.243750X0.456250X-0.243750X0.456250X0*%
%TD*%
%TA.AperFunction,SMDPad,CuDef*%
%ADD17RoundRect,0.250000X-1.250000X-0.550000X1.250000X-0.550000X1.250000X0.550000X-1.250000X0.550000X0*%
%TD*%
%TA.AperFunction,ViaPad*%
%ADD18C,0.600000*%
%TD*%
%TA.AperFunction,Conductor*%
%ADD19C,0.200000*%
%TD*%
G04 APERTURE END LIST*
D10*
%TO.P,U1,1*%
%TO.N,GND*%
X25000000Y-17000000D03*
D11*
%TO.P,U1,2*%
%TO.N,TIMING*%
X25000000Y-19540000D03*
%TO.P,U1,3*%
%TO.N,OUTPUT*%
X25000000Y-22080000D03*
%TO.P,U1,4*%
%TO.N,VCC*%
X25000000Y-24620000D03*
%TO.P,U1,5*%
%TO.N,CV*%
X32620000Y-24620000D03*
%TO.P,U1,6*%
%TO.N,TIMING*%
X32620000Y-22080000D03*
%TO.P,U1,7*%
%TO.N,DISC*%
X32620000Y-19540000D03*
%TO.P,U1,8*%
%TO.N,VCC*%
X32620000Y-17000000D03*
%TD*%
D12*
%TO.P,C2,1*%
%TO.N,CV*%
X10225000Y-12000000D03*
%TO.P,C2,2*%
%TO.N,GND*%
X11775000Y-12000000D03*
%TD*%
D13*
%TO.P,R2,1*%
%TO.N,DISC*%
X16175000Y-10000000D03*
%TO.P,R2,2*%
%TO.N,TIMING*%
X17825000Y-10000000D03*
%TD*%
%TO.P,R1,1*%
%TO.N,VCC*%
X16175000Y-17000000D03*
%TO.P,R1,2*%
%TO.N,DISC*%
X17825000Y-17000000D03*
%TD*%
%TO.P,R3,1*%
%TO.N,OUTPUT*%
X35175000Y-14000000D03*
%TO.P,R3,2*%
%TO.N,LED_A*%
X36825000Y-14000000D03*
%TD*%
D14*
%TO.P,J1,1*%
%TO.N,GND*%
X5000000Y-17000000D03*
D15*
%TO.P,J1,2*%
%TO.N,VCC*%
X5000000Y-19540000D03*
%TD*%
D16*
%TO.P,D1,1*%
%TO.N,GND*%
X42062500Y-14000000D03*
%TO.P,D1,2*%
%TO.N,LED_A*%
X43937500Y-14000000D03*
%TD*%
D17*
%TO.P,C1,1*%
%TO.N,TIMING*%
X14800000Y-27000000D03*
%TO.P,C1,2*%
%TO.N,GND*%
X19200000Y-27000000D03*
%TD*%
D18*
%TO.N,CV*%
X27286700Y-8739900D03*
%TD*%
D19*
%TO.N,TIMING*%
X26590500Y-28109500D02*
X32620000Y-22080000D01*
X23561200Y-18101200D02*
X25000000Y-19540000D01*
X17825000Y-10000000D02*
X23561200Y-15736200D01*
X15909500Y-28109500D02*
X26590500Y-28109500D01*
X23561200Y-15736200D02*
X23561200Y-18101200D01*
X14800000Y-27000000D02*
X15909500Y-28109500D01*
%TO.N,VCC*%
X28114900Y-24620000D02*
X31924900Y-20810000D01*
X33733800Y-18113800D02*
X32620000Y-17000000D01*
X32962000Y-20810000D02*
X33733800Y-20038200D01*
X16175000Y-17000000D02*
X23795000Y-24620000D01*
X13635000Y-19540000D02*
X16175000Y-17000000D01*
X33733800Y-20038200D02*
X33733800Y-18113800D01*
X23795000Y-24620000D02*
X25000000Y-24620000D01*
X5000000Y-19540000D02*
X13635000Y-19540000D01*
X31924900Y-20810000D02*
X32962000Y-20810000D01*
X25000000Y-24620000D02*
X28114900Y-24620000D01*
%TO.N,GND*%
X8208200Y-24438800D02*
X16638800Y-24438800D01*
X15816200Y-9173100D02*
X18263800Y-9173100D01*
X3848100Y-19015700D02*
X3848100Y-20078700D01*
X16638800Y-24438800D02*
X19200000Y-27000000D01*
X18263800Y-9173100D02*
X25000000Y-15909300D01*
X35608000Y-13186700D02*
X27722600Y-13186700D01*
X27722600Y-13186700D02*
X25000000Y-15909300D01*
X42062500Y-14000000D02*
X41273800Y-14788700D01*
X3848100Y-20078700D02*
X8208200Y-24438800D01*
X41273800Y-14788700D02*
X36362100Y-14788700D01*
X15416100Y-9573200D02*
X15816200Y-9173100D01*
X5000000Y-17000000D02*
X6775000Y-17000000D01*
X36000000Y-13578700D02*
X35608000Y-13186700D01*
X36000000Y-14426600D02*
X36000000Y-13578700D01*
X11775000Y-12000000D02*
X14201700Y-9573300D01*
X25000000Y-17000000D02*
X25000000Y-15909300D01*
X5000000Y-18151700D02*
X4712100Y-18151700D01*
X15416100Y-9573300D02*
X15416100Y-9573200D01*
X4712100Y-18151700D02*
X3848100Y-19015700D01*
X6775000Y-17000000D02*
X11775000Y-12000000D01*
X36362100Y-14788700D02*
X36000000Y-14426600D01*
X5000000Y-17000000D02*
X5000000Y-18151700D01*
X14201700Y-9573300D02*
X15416100Y-9573300D01*
%TO.N,DISC*%
X17825000Y-11650000D02*
X16175000Y-10000000D01*
X17825000Y-17000000D02*
X17825000Y-11650000D01*
X28971800Y-23188200D02*
X32620000Y-19540000D01*
X24013200Y-23188200D02*
X28971800Y-23188200D01*
X17825000Y-17000000D02*
X24013200Y-23188200D01*
%TO.N,OUTPUT*%
X33080000Y-14000000D02*
X25000000Y-22080000D01*
X35175000Y-14000000D02*
X33080000Y-14000000D01*
%TO.N,CV*%
X13485100Y-8739900D02*
X27286700Y-8739900D01*
X10225000Y-12000000D02*
X13485100Y-8739900D01*
%TO.N,LED_A*%
X37850700Y-12974300D02*
X36825000Y-14000000D01*
X43937500Y-14000000D02*
X42911800Y-12974300D01*
X42911800Y-12974300D02*
X37850700Y-12974300D01*
%TD*%
M02*
