%TF.GenerationSoftware,KiCad,Pcbnew,9.0.2+dfsg-1*%
%TF.CreationDate,2026-05-06T07:51:09+00:00*%
%TF.ProjectId,blink_555,626c696e-6b5f-4353-9535-2e6b69636164,rev?*%
%TF.SameCoordinates,Original*%
%TF.FileFunction,Legend,Top*%
%TF.FilePolarity,Positive*%
%FSLAX46Y46*%
G04 Gerber Fmt 4.6, Leading zero omitted, Abs format (unit mm)*
G04 Created by KiCad (PCBNEW 9.0.2+dfsg-1) date 2026-05-06 07:51:09*
%MOMM*%
%LPD*%
G01*
G04 APERTURE LIST*
%ADD10C,0.150000*%
%ADD11C,0.120000*%
G04 APERTURE END LIST*
D10*
X28048095Y-14124819D02*
X28048095Y-14934342D01*
X28048095Y-14934342D02*
X28095714Y-15029580D01*
X28095714Y-15029580D02*
X28143333Y-15077200D01*
X28143333Y-15077200D02*
X28238571Y-15124819D01*
X28238571Y-15124819D02*
X28429047Y-15124819D01*
X28429047Y-15124819D02*
X28524285Y-15077200D01*
X28524285Y-15077200D02*
X28571904Y-15029580D01*
X28571904Y-15029580D02*
X28619523Y-14934342D01*
X28619523Y-14934342D02*
X28619523Y-14124819D01*
X29619523Y-15124819D02*
X29048095Y-15124819D01*
X29333809Y-15124819D02*
X29333809Y-14124819D01*
X29333809Y-14124819D02*
X29238571Y-14267676D01*
X29238571Y-14267676D02*
X29143333Y-14362914D01*
X29143333Y-14362914D02*
X29048095Y-14410533D01*
X10833333Y-10929580D02*
X10785714Y-10977200D01*
X10785714Y-10977200D02*
X10642857Y-11024819D01*
X10642857Y-11024819D02*
X10547619Y-11024819D01*
X10547619Y-11024819D02*
X10404762Y-10977200D01*
X10404762Y-10977200D02*
X10309524Y-10881961D01*
X10309524Y-10881961D02*
X10261905Y-10786723D01*
X10261905Y-10786723D02*
X10214286Y-10596247D01*
X10214286Y-10596247D02*
X10214286Y-10453390D01*
X10214286Y-10453390D02*
X10261905Y-10262914D01*
X10261905Y-10262914D02*
X10309524Y-10167676D01*
X10309524Y-10167676D02*
X10404762Y-10072438D01*
X10404762Y-10072438D02*
X10547619Y-10024819D01*
X10547619Y-10024819D02*
X10642857Y-10024819D01*
X10642857Y-10024819D02*
X10785714Y-10072438D01*
X10785714Y-10072438D02*
X10833333Y-10120057D01*
X11214286Y-10120057D02*
X11261905Y-10072438D01*
X11261905Y-10072438D02*
X11357143Y-10024819D01*
X11357143Y-10024819D02*
X11595238Y-10024819D01*
X11595238Y-10024819D02*
X11690476Y-10072438D01*
X11690476Y-10072438D02*
X11738095Y-10120057D01*
X11738095Y-10120057D02*
X11785714Y-10215295D01*
X11785714Y-10215295D02*
X11785714Y-10310533D01*
X11785714Y-10310533D02*
X11738095Y-10453390D01*
X11738095Y-10453390D02*
X11166667Y-11024819D01*
X11166667Y-11024819D02*
X11785714Y-11024819D01*
X16833333Y-9024819D02*
X16500000Y-8548628D01*
X16261905Y-9024819D02*
X16261905Y-8024819D01*
X16261905Y-8024819D02*
X16642857Y-8024819D01*
X16642857Y-8024819D02*
X16738095Y-8072438D01*
X16738095Y-8072438D02*
X16785714Y-8120057D01*
X16785714Y-8120057D02*
X16833333Y-8215295D01*
X16833333Y-8215295D02*
X16833333Y-8358152D01*
X16833333Y-8358152D02*
X16785714Y-8453390D01*
X16785714Y-8453390D02*
X16738095Y-8501009D01*
X16738095Y-8501009D02*
X16642857Y-8548628D01*
X16642857Y-8548628D02*
X16261905Y-8548628D01*
X17214286Y-8120057D02*
X17261905Y-8072438D01*
X17261905Y-8072438D02*
X17357143Y-8024819D01*
X17357143Y-8024819D02*
X17595238Y-8024819D01*
X17595238Y-8024819D02*
X17690476Y-8072438D01*
X17690476Y-8072438D02*
X17738095Y-8120057D01*
X17738095Y-8120057D02*
X17785714Y-8215295D01*
X17785714Y-8215295D02*
X17785714Y-8310533D01*
X17785714Y-8310533D02*
X17738095Y-8453390D01*
X17738095Y-8453390D02*
X17166667Y-9024819D01*
X17166667Y-9024819D02*
X17785714Y-9024819D01*
X16833333Y-16024819D02*
X16500000Y-15548628D01*
X16261905Y-16024819D02*
X16261905Y-15024819D01*
X16261905Y-15024819D02*
X16642857Y-15024819D01*
X16642857Y-15024819D02*
X16738095Y-15072438D01*
X16738095Y-15072438D02*
X16785714Y-15120057D01*
X16785714Y-15120057D02*
X16833333Y-15215295D01*
X16833333Y-15215295D02*
X16833333Y-15358152D01*
X16833333Y-15358152D02*
X16785714Y-15453390D01*
X16785714Y-15453390D02*
X16738095Y-15501009D01*
X16738095Y-15501009D02*
X16642857Y-15548628D01*
X16642857Y-15548628D02*
X16261905Y-15548628D01*
X17785714Y-16024819D02*
X17214286Y-16024819D01*
X17500000Y-16024819D02*
X17500000Y-15024819D01*
X17500000Y-15024819D02*
X17404762Y-15167676D01*
X17404762Y-15167676D02*
X17309524Y-15262914D01*
X17309524Y-15262914D02*
X17214286Y-15310533D01*
X35833333Y-13024819D02*
X35500000Y-12548628D01*
X35261905Y-13024819D02*
X35261905Y-12024819D01*
X35261905Y-12024819D02*
X35642857Y-12024819D01*
X35642857Y-12024819D02*
X35738095Y-12072438D01*
X35738095Y-12072438D02*
X35785714Y-12120057D01*
X35785714Y-12120057D02*
X35833333Y-12215295D01*
X35833333Y-12215295D02*
X35833333Y-12358152D01*
X35833333Y-12358152D02*
X35785714Y-12453390D01*
X35785714Y-12453390D02*
X35738095Y-12501009D01*
X35738095Y-12501009D02*
X35642857Y-12548628D01*
X35642857Y-12548628D02*
X35261905Y-12548628D01*
X36166667Y-12024819D02*
X36785714Y-12024819D01*
X36785714Y-12024819D02*
X36452381Y-12405771D01*
X36452381Y-12405771D02*
X36595238Y-12405771D01*
X36595238Y-12405771D02*
X36690476Y-12453390D01*
X36690476Y-12453390D02*
X36738095Y-12501009D01*
X36738095Y-12501009D02*
X36785714Y-12596247D01*
X36785714Y-12596247D02*
X36785714Y-12834342D01*
X36785714Y-12834342D02*
X36738095Y-12929580D01*
X36738095Y-12929580D02*
X36690476Y-12977200D01*
X36690476Y-12977200D02*
X36595238Y-13024819D01*
X36595238Y-13024819D02*
X36309524Y-13024819D01*
X36309524Y-13024819D02*
X36214286Y-12977200D01*
X36214286Y-12977200D02*
X36166667Y-12929580D01*
X4666666Y-14074819D02*
X4666666Y-14789104D01*
X4666666Y-14789104D02*
X4619047Y-14931961D01*
X4619047Y-14931961D02*
X4523809Y-15027200D01*
X4523809Y-15027200D02*
X4380952Y-15074819D01*
X4380952Y-15074819D02*
X4285714Y-15074819D01*
X5666666Y-15074819D02*
X5095238Y-15074819D01*
X5380952Y-15074819D02*
X5380952Y-14074819D01*
X5380952Y-14074819D02*
X5285714Y-14217676D01*
X5285714Y-14217676D02*
X5190476Y-14312914D01*
X5190476Y-14312914D02*
X5095238Y-14360533D01*
X42261905Y-12804819D02*
X42261905Y-11804819D01*
X42261905Y-11804819D02*
X42500000Y-11804819D01*
X42500000Y-11804819D02*
X42642857Y-11852438D01*
X42642857Y-11852438D02*
X42738095Y-11947676D01*
X42738095Y-11947676D02*
X42785714Y-12042914D01*
X42785714Y-12042914D02*
X42833333Y-12233390D01*
X42833333Y-12233390D02*
X42833333Y-12376247D01*
X42833333Y-12376247D02*
X42785714Y-12566723D01*
X42785714Y-12566723D02*
X42738095Y-12661961D01*
X42738095Y-12661961D02*
X42642857Y-12757200D01*
X42642857Y-12757200D02*
X42500000Y-12804819D01*
X42500000Y-12804819D02*
X42261905Y-12804819D01*
X43785714Y-12804819D02*
X43214286Y-12804819D01*
X43500000Y-12804819D02*
X43500000Y-11804819D01*
X43500000Y-11804819D02*
X43404762Y-11947676D01*
X43404762Y-11947676D02*
X43309524Y-12042914D01*
X43309524Y-12042914D02*
X43214286Y-12090533D01*
X16833333Y-23659580D02*
X16785714Y-23707200D01*
X16785714Y-23707200D02*
X16642857Y-23754819D01*
X16642857Y-23754819D02*
X16547619Y-23754819D01*
X16547619Y-23754819D02*
X16404762Y-23707200D01*
X16404762Y-23707200D02*
X16309524Y-23611961D01*
X16309524Y-23611961D02*
X16261905Y-23516723D01*
X16261905Y-23516723D02*
X16214286Y-23326247D01*
X16214286Y-23326247D02*
X16214286Y-23183390D01*
X16214286Y-23183390D02*
X16261905Y-22992914D01*
X16261905Y-22992914D02*
X16309524Y-22897676D01*
X16309524Y-22897676D02*
X16404762Y-22802438D01*
X16404762Y-22802438D02*
X16547619Y-22754819D01*
X16547619Y-22754819D02*
X16642857Y-22754819D01*
X16642857Y-22754819D02*
X16785714Y-22802438D01*
X16785714Y-22802438D02*
X16833333Y-22850057D01*
X17785714Y-23754819D02*
X17214286Y-23754819D01*
X17500000Y-23754819D02*
X17500000Y-22754819D01*
X17500000Y-22754819D02*
X17404762Y-22897676D01*
X17404762Y-22897676D02*
X17309524Y-22992914D01*
X17309524Y-22992914D02*
X17214286Y-23040533D01*
D11*
%TO.C,U1*%
X26160000Y-15670000D02*
X26160000Y-25950000D01*
X26160000Y-25950000D02*
X31460000Y-25950000D01*
X27810000Y-15670000D02*
X26160000Y-15670000D01*
X31460000Y-15670000D02*
X29810000Y-15670000D01*
X31460000Y-25950000D02*
X31460000Y-15670000D01*
X29810000Y-15670000D02*
G75*
G02*
X27810000Y-15670000I-1000000J0D01*
G01*
%TO.C,C2*%
X10859420Y-11490000D02*
X11140580Y-11490000D01*
X10859420Y-12510000D02*
X11140580Y-12510000D01*
%TO.C,R2*%
X16762742Y-9477500D02*
X17237258Y-9477500D01*
X16762742Y-10522500D02*
X17237258Y-10522500D01*
%TO.C,R1*%
X16762742Y-16477500D02*
X17237258Y-16477500D01*
X16762742Y-17522500D02*
X17237258Y-17522500D01*
%TO.C,R3*%
X35762742Y-13477500D02*
X36237258Y-13477500D01*
X35762742Y-14522500D02*
X36237258Y-14522500D01*
%TO.C,J1*%
X3620000Y-15620000D02*
X5000000Y-15620000D01*
X3620000Y-17000000D02*
X3620000Y-15620000D01*
X3620000Y-18270000D02*
X3620000Y-20920000D01*
X3620000Y-18270000D02*
X6380000Y-18270000D01*
X3620000Y-20920000D02*
X6380000Y-20920000D01*
X6380000Y-18270000D02*
X6380000Y-20920000D01*
%TO.C,D1*%
X41315000Y-13040000D02*
X41315000Y-14960000D01*
X41315000Y-14960000D02*
X44000000Y-14960000D01*
X44000000Y-13040000D02*
X41315000Y-13040000D01*
%TO.C,C1*%
X13375000Y-25315000D02*
X14000000Y-25315000D01*
X13687500Y-25002500D02*
X13687500Y-25627500D01*
X14240000Y-25304437D02*
X14240000Y-25940000D01*
X14240000Y-25304437D02*
X15304437Y-24240000D01*
X14240000Y-28695563D02*
X14240000Y-28060000D01*
X14240000Y-28695563D02*
X15304437Y-29760000D01*
X15304437Y-24240000D02*
X19760000Y-24240000D01*
X15304437Y-29760000D02*
X19760000Y-29760000D01*
X19760000Y-24240000D02*
X19760000Y-25940000D01*
X19760000Y-29760000D02*
X19760000Y-28060000D01*
%TD*%
M02*
